<svg id="visual" viewBox="0 0 900 600" width="900" height="600" xmlns="http://www.w3.org/2000/svg" xmlns:xlink="http://www.w3.org/1999/xlink" version="1.1"><g stroke-width="1" stroke-linejoin="bevel"><path d="M484 282L582 200L486 186Z" fill="#002738" stroke="#002738"></path><path d="M484 282L612 277L582 200Z" fill="#001626" stroke="#001626"></path><path d="M477 101L415 169L486 186Z" fill="#001c2c" stroke="#001c2c"></path><path d="M486 186L415 169L484 282Z" fill="#052d3e" stroke="#052d3e"></path><path d="M582 200L477 101L486 186Z" fill="#001c2c" stroke="#001c2c"></path><path d="M730 182L628 111L582 200Z" fill="#001626" stroke="#001626"></path><path d="M582 200L628 111L477 101Z" fill="#002132" stroke="#002132"></path><path d="M375 331L494 409L484 282Z" fill="#001626" stroke="#001626"></path><path d="M484 282L494 409L612 277Z" fill="#002738" stroke="#002738"></path><path d="M624 400L698 288L612 277Z" fill="#001c2c" stroke="#001c2c"></path><path d="M612 277L730 182L582 200Z" fill="#000000" stroke="#000000"></path><path d="M324 231L375 331L484 282Z" fill="#1d4558" stroke="#1d4558"></path><path d="M477 101L385 111L415 169Z" fill="#000000" stroke="#000000"></path><path d="M415 169L324 231L484 282Z" fill="#11394b" stroke="#11394b"></path><path d="M494 409L624 400L612 277Z" fill="#173f51" stroke="#173f51"></path><path d="M385 111L324 231L415 169Z" fill="#173f51" stroke="#173f51"></path><path d="M698 288L730 182L612 277Z" fill="#052d3e" stroke="#052d3e"></path><path d="M375 331L386 393L494 409Z" fill="#0b3345" stroke="#0b3345"></path><path d="M291 389L386 393L375 331Z" fill="#000000" stroke="#000000"></path><path d="M730 182L719 119L628 111Z" fill="#001626" stroke="#001626"></path><path d="M597 0L477 101L628 111Z" fill="#000f20" stroke="#000f20"></path><path d="M597 0L508 0L477 101Z" fill="#002738" stroke="#002738"></path><path d="M477 101L374 0L385 111Z" fill="#11394b" stroke="#11394b"></path><path d="M624 400L724 377L698 288Z" fill="#11394b" stroke="#11394b"></path><path d="M698 288L833 225L730 182Z" fill="#002738" stroke="#002738"></path><path d="M470 509L599 469L494 409Z" fill="#11394b" stroke="#11394b"></path><path d="M494 409L599 469L624 400Z" fill="#0b3345" stroke="#0b3345"></path><path d="M624 400L693 469L724 377Z" fill="#1d4558" stroke="#1d4558"></path><path d="M690 0L597 0L628 111Z" fill="#052d3e" stroke="#052d3e"></path><path d="M219 203L267 293L324 231Z" fill="#000000" stroke="#000000"></path><path d="M324 231L267 293L375 331Z" fill="#0b3345" stroke="#0b3345"></path><path d="M375 474L494 409L386 393Z" fill="#052d3e" stroke="#052d3e"></path><path d="M375 474L470 509L494 409Z" fill="#001c2c" stroke="#001c2c"></path><path d="M508 0L374 0L477 101Z" fill="#000000" stroke="#000000"></path><path d="M385 111L280 68L324 231Z" fill="#001626" stroke="#001626"></path><path d="M267 293L291 389L375 331Z" fill="#001c2c" stroke="#001c2c"></path><path d="M291 389L375 474L386 393Z" fill="#002738" stroke="#002738"></path><path d="M719 119L690 0L628 111Z" fill="#002132" stroke="#002132"></path><path d="M631 600L693 469L599 469Z" fill="#000f20" stroke="#000f20"></path><path d="M599 469L693 469L624 400Z" fill="#001626" stroke="#001626"></path><path d="M374 0L280 68L385 111Z" fill="#1d4558" stroke="#1d4558"></path><path d="M823 325L833 225L698 288Z" fill="#052d3e" stroke="#052d3e"></path><path d="M730 182L803 77L719 119Z" fill="#000f20" stroke="#000f20"></path><path d="M719 119L775 0L690 0Z" fill="#052d3e" stroke="#052d3e"></path><path d="M823 325L698 288L724 377Z" fill="#002738" stroke="#002738"></path><path d="M824 396L823 325L724 377Z" fill="#002738" stroke="#002738"></path><path d="M280 68L219 203L324 231Z" fill="#002132" stroke="#002132"></path><path d="M267 293L210 288L291 389Z" fill="#001c2c" stroke="#001c2c"></path><path d="M833 225L803 77L730 182Z" fill="#052d3e" stroke="#052d3e"></path><path d="M219 203L210 288L267 293Z" fill="#000000" stroke="#000000"></path><path d="M374 0L297 0L280 68Z" fill="#0b3345" stroke="#0b3345"></path><path d="M280 68L205 125L219 203Z" fill="#1d4558" stroke="#1d4558"></path><path d="M789 504L824 396L724 377Z" fill="#002132" stroke="#002132"></path><path d="M900 297L900 202L833 225Z" fill="#002132" stroke="#002132"></path><path d="M803 77L775 0L719 119Z" fill="#0b3345" stroke="#0b3345"></path><path d="M173 0L205 125L280 68Z" fill="#052d3e" stroke="#052d3e"></path><path d="M219 203L124 226L210 288Z" fill="#11394b" stroke="#11394b"></path><path d="M375 474L374 600L470 509Z" fill="#11394b" stroke="#11394b"></path><path d="M291 389L319 525L375 474Z" fill="#0b3345" stroke="#0b3345"></path><path d="M177 504L319 525L291 389Z" fill="#052d3e" stroke="#052d3e"></path><path d="M374 600L498 600L470 509Z" fill="#052d3e" stroke="#052d3e"></path><path d="M470 509L498 600L599 469Z" fill="#000f20" stroke="#000f20"></path><path d="M693 469L789 504L724 377Z" fill="#002132" stroke="#002132"></path><path d="M900 297L833 225L823 325Z" fill="#001626" stroke="#001626"></path><path d="M833 225L900 119L803 77Z" fill="#052d3e" stroke="#052d3e"></path><path d="M803 77L900 0L775 0Z" fill="#001626" stroke="#001626"></path><path d="M669 600L789 504L693 469Z" fill="#1d4558" stroke="#1d4558"></path><path d="M900 410L900 297L823 325Z" fill="#000000" stroke="#000000"></path><path d="M900 410L823 325L824 396Z" fill="#11394b" stroke="#11394b"></path><path d="M498 600L631 600L599 469Z" fill="#002132" stroke="#002132"></path><path d="M105 298L180 399L210 288Z" fill="#000000" stroke="#000000"></path><path d="M210 288L180 399L291 389Z" fill="#0b3345" stroke="#0b3345"></path><path d="M900 202L900 119L833 225Z" fill="#002738" stroke="#002738"></path><path d="M631 600L669 600L693 469Z" fill="#173f51" stroke="#173f51"></path><path d="M325 600L374 600L319 525Z" fill="#002132" stroke="#002132"></path><path d="M319 525L374 600L375 474Z" fill="#002132" stroke="#002132"></path><path d="M92 69L124 226L205 125Z" fill="#001626" stroke="#001626"></path><path d="M205 125L124 226L219 203Z" fill="#001c2c" stroke="#001c2c"></path><path d="M900 474L900 410L824 396Z" fill="#000f20" stroke="#000f20"></path><path d="M177 600L325 600L319 525Z" fill="#0b3345" stroke="#0b3345"></path><path d="M297 0L173 0L280 68Z" fill="#11394b" stroke="#11394b"></path><path d="M124 226L105 298L210 288Z" fill="#000000" stroke="#000000"></path><path d="M180 399L177 504L291 389Z" fill="#002132" stroke="#002132"></path><path d="M0 205L105 298L124 226Z" fill="#000f20" stroke="#000f20"></path><path d="M900 119L900 0L803 77Z" fill="#002132" stroke="#002132"></path><path d="M126 507L177 504L180 399Z" fill="#173f51" stroke="#173f51"></path><path d="M823 600L900 474L789 504Z" fill="#000f20" stroke="#000f20"></path><path d="M789 504L900 474L824 396Z" fill="#1d4558" stroke="#1d4558"></path><path d="M0 311L85 371L105 298Z" fill="#000000" stroke="#000000"></path><path d="M105 298L85 371L180 399Z" fill="#052d3e" stroke="#052d3e"></path><path d="M173 0L92 69L205 125Z" fill="#001c2c" stroke="#001c2c"></path><path d="M669 600L823 600L789 504Z" fill="#052d3e" stroke="#052d3e"></path><path d="M85 371L126 507L180 399Z" fill="#000000" stroke="#000000"></path><path d="M177 504L177 600L319 525Z" fill="#173f51" stroke="#173f51"></path><path d="M173 0L87 0L92 69Z" fill="#002738" stroke="#002738"></path><path d="M92 69L0 205L124 226Z" fill="#0b3345" stroke="#0b3345"></path><path d="M126 507L177 600L177 504Z" fill="#000f20" stroke="#000f20"></path><path d="M823 600L900 600L900 474Z" fill="#11394b" stroke="#11394b"></path><path d="M0 83L0 205L92 69Z" fill="#001c2c" stroke="#001c2c"></path><path d="M85 371L0 495L126 507Z" fill="#002738" stroke="#002738"></path><path d="M0 205L0 311L105 298Z" fill="#1d4558" stroke="#1d4558"></path><path d="M126 507L67 600L177 600Z" fill="#001626" stroke="#001626"></path><path d="M0 311L0 382L85 371Z" fill="#000000" stroke="#000000"></path><path d="M0 0L0 83L92 69Z" fill="#001626" stroke="#001626"></path><path d="M87 0L0 0L92 69Z" fill="#000000" stroke="#000000"></path><path d="M0 495L67 600L126 507Z" fill="#002738" stroke="#002738"></path><path d="M0 382L0 495L85 371Z" fill="#002738" stroke="#002738"></path><path d="M0 495L0 600L67 600Z" fill="#052d3e" stroke="#052d3e"></path></g></svg>